<svg xmlns="http://www.w3.org/2000/svg" viewBox="0 0 32 32">
  <defs>
    <linearGradient id="g" x1="0%" y1="0%" x2="100%" y2="100%">
      <stop offset="0%" style="stop-color:#4c66ff"/>
      <stop offset="100%" style="stop-color:#3947c6"/>
    </linearGradient>
  </defs>
  <!-- Background circle -->
  <circle cx="16" cy="16" r="15" fill="url(#g)"/>
  <!-- Question mark -->
  <path d="M16 7c-3.3 0-6 2.2-6 5 0 .8.7 1.5 1.5 1.5s1.5-.7 1.5-1.5c0-1.1 1.3-2 3-2s3 .9 3 2c0 .8-.5 1.3-1.5 1.8-1.5.8-2.5 2-2.5 3.7v.5c0 .8.7 1.5 1.5 1.5s1.5-.7 1.5-1.5v-.5c0-.6.3-1 1-1.4 1.5-.8 3-2 3-4.1 0-2.8-2.7-5-6-5z" fill="white"/>
  <circle cx="16" cy="23.5" r="1.8" fill="white"/>
</svg>
